HIERARCHY
ROOT pelvis
{
  OFFSET 0 100 0
  CHANNELS 6 Xposition Yposition Zposition Zrotation Xrotation Yrotation
  JOINT pelvis_right_femur
  {
    OFFSET -10.78128 -3.44521 -0.5502486
    CHANNELS 3 Zrotation Xrotation Yrotation
    JOINT right_femur_tibia
    {
      OFFSET -0.8047443 -44.0398 -0.1307829
      CHANNELS 3 Zrotation Xrotation Yrotation
      JOINT right_tibia_foot
      {
        OFFSET 3.006224 -47.83518 -5
        CHANNELS 3 Zrotation Xrotation Yrotation
        End Site
        {
          OFFSET 0 -5 15
        }
      }
    }
  }
  JOINT pelvis_left_femur
  {
    OFFSET 10.78128 -3.44521 -0.5502486
    CHANNELS 3 Zrotation Xrotation Yrotation
    JOINT left_femur_tibia
    {
      OFFSET 0.8047443 -44.0398 -0.1307829
      CHANNELS 3 Zrotation Xrotation Yrotation
      JOINT left_tibia_foot
      {
        OFFSET -4.370144 -48.10324 -4.275266
        CHANNELS 3 Zrotation Xrotation Yrotation
        End Site
        {
          OFFSET 0 -5 15
        }
      }
    }
  }
  JOINT pelvis_spine1
  {
    OFFSET 0 6.468898 -3.129235
    CHANNELS 3 Zrotation Xrotation Yrotation
    JOINT spine1
    {
      OFFSET 0 23.15396 4.99043
      CHANNELS 3 Zrotation Xrotation Yrotation
      JOINT spine2
      {
        OFFSET 0 20.79997 -5.064912
        CHANNELS 3 Zrotation Xrotation Yrotation
        JOINT neck
        {
          OFFSET 0 14.38658 9.616178
          CHANNELS 3 Zrotation Xrotation Yrotation
          End Site
          {
            OFFSET 0 20 0
          }
        }
      }
      JOINT right_manubrium
      {
        OFFSET -5.722621 16.35077 3.967754
        CHANNELS 3 Zrotation Xrotation Yrotation
        JOINT right_clavicle
        {
          OFFSET -13.16364 1.694482 -4.693211
          CHANNELS 3 Zrotation Xrotation Yrotation
          JOINT right_humerus
          {
            OFFSET -28.5034 -0.3100689 -2.792744
            CHANNELS 3 Zrotation Xrotation Yrotation
            JOINT right_radius
            {
              OFFSET -25.15693 0.02248979 -1.271978
              CHANNELS 3 Zrotation Xrotation Yrotation
              End Site
              {
                OFFSET -15 0 0
              }
            }
          }
        }
      }
      JOINT left_manubrium
      {
        OFFSET 5.722621 16.35077 3.967754
        CHANNELS 3 Zrotation Xrotation Yrotation
        JOINT left_clavicle
        {
          OFFSET 13.16364 1.694482 -4.693211
          CHANNELS 3 Zrotation Xrotation Yrotation
          JOINT left_humerus
          {
            OFFSET 29.39168 -1.063119 -2.237045
            CHANNELS 3 Zrotation Xrotation Yrotation
            JOINT left_radius
            {
              OFFSET 24.59957 -0.9528479 0.9047498
              CHANNELS 3 Zrotation Xrotation Yrotation
              End Site
              {
                OFFSET 15 -0 -0
              }
            }
          }
        }
      }
    }
  }
}
MOTION
Frames: 18
Frame Time: 0.0416666666667
0 103.5113 0 0.2439508 -4.047607 0.171419 3.660776 -14.61302 3.751596 2.535079e-11 25.09884 1.481939e-12 -5.127835 -5.274477 -4.433712 -4.626554 7.074239 -12.49121 5.496867e-11 21.67971 6.870924e-11 -2.545421 -15.27036 17.00861 -1.566543 -1.029776 3.897956 1.04137 9.699154 -6.879252 1.602193 21.78048 6.269502 3.07652 -20.08209 7.489491 2.557799 -17.31161 10.70935 86.84806 27.7932 -18.82588 2.743384e-12 -1.985312e-12 11.92658 -15.19953 10.22416 7.612412 5.664976 -20.7824 -4.059672 -86.81282 26.61151 15.31206 4.261508e-12 4.279068e-12 -20.98818 2.181928 12.51035 11.14112
0.04961212 103.4973 4.667289 0.2327334 -3.914726 0.3462879 3.719472 -16.16066 3.734224 3.057209e-11 25.04441 1.793501e-12 -5.23596 -5.022729 -4.559123 -4.75337 8.462271 -12.75487 6.623391e-11 21.68865 8.29255e-11 -2.454385 -15.74665 16.94586 -1.60103 -1.062078 3.733621 1.154382 9.701639 -7.081913 1.586039 21.85947 6.375229 3.134372 -20.28355 7.591856 2.646883 -17.14014 10.74052 87.57814 27.95905 -19.60246 3.332809e-12 -2.370953e-12 11.44428 -14.99281 10.23302 7.415124 5.770823 -21.08402 -4.10927 -86.8839 26.70176 14.84089 5.140288e-12 5.141598e-12 -21.64855 2.395098 12.67085 10.94367
0.07161528 103.4838 9.308658 0.2174186 -3.74924 0.5465272 3.780183 -17.96053 3.706861 3.668607e-11 24.92729 2.183933e-12 -5.351885 -4.714117 -4.696985 -4.888592 10.08827 -13.0397 7.947072e-11 21.65365 9.961291e-11 -2.346945 -16.27754 16.83652 -1.63872 -1.097884 3.531089 1.284503 9.683916 -7.306722 1.565961 21.90695 6.486979 3.193459 -20.48 7.695443 2.742965 -16.90158 10.75279 88.24036 28.13054 -20.43989 4.019605e-12 -2.830252e-12 10.84884 -14.71465 10.22324 7.162827 5.884997 -21.39679 -4.160703 -86.7648 26.78732 14.20889 6.180373e-12 6.141473e-12 -22.3854 2.646002 12.83307 10.68603
0.06414773 103.4701 13.91117 0.1995189 -3.560667 0.7741123 3.835736 -19.8757 3.66918 4.323598e-11 24.7415 2.642249e-12 -5.464057 -4.367791 -4.834612 -5.019165 11.83164 -13.3185 9.372782e-11 21.56482 1.175563e-10 -2.231381 -16.81643 16.6787 -1.676083 -1.13398 3.302612 1.421326 9.641651 -7.533464 1.543304 21.90703 6.593069 3.246782 -20.64606 7.787909 2.836803 -16.6033 10.73855 88.73151 28.29366 -21.25534 4.751118e-12 -3.332311e-12 10.176 -14.37592 10.1895 6.868587 5.99638 -21.68633 -4.208481 -86.40875 26.85282 13.43966 7.307278e-12 7.201816e-12 -23.13407 2.916341 12.97767 10.38018
0.02657799 103.4552 18.46948 0.1797862 -3.359137 1.030521 3.890849 -21.88174 3.628509 5.010536e-11 24.52662 3.15736e-12 -5.577222 -3.998931 -4.975254 -5.146268 13.66223 -13.60232 1.087418e-10 21.45467 1.364279e-10 -2.111032 -17.37265 16.50032 -1.714422 -1.171017 3.058981 1.563908 9.589267 -7.766703 1.519198 21.89037 6.699916 3.299647 -20.80571 7.879015 2.93237 -16.2762 10.71428 89.17888 28.45505 -22.08603 5.513157e-12 -3.869481e-12 9.458235 -14.00723 10.14502 6.552091 6.109675 -21.97533 -4.255897 -85.96063 26.90849 12.60095 8.503779e-12 8.299822e-12 -23.90652 3.201297 13.11878 10.04878
-0.03620042 103.4381 22.9777 0.1615643 -3.163426 1.313771 3.933064 -23.72396 3.58335 5.644678e-11 24.27719 3.685128e-12 -5.671549 -3.644961 -5.096672 -5.251911 15.35443 -13.84318 1.227063e-10 21.30959 1.539371e-10 -2.000286 -17.86157 16.30101 -1.747317 -1.203308 2.824204 1.693249 9.521226 -7.970127 1.496165 21.8321 6.787014 3.339814 -20.91577 7.94737 3.013311 -15.93803 10.66874 89.40717 28.59249 -22.78392 6.211841e-12 -4.376424e-12 8.765652 -13.63261 10.08335 6.239896 6.205154 -22.20386 -4.293681 -85.35459 26.93081 11.7472 9.620265e-12 9.303874e-12 -24.58573 3.465792 13.22401 9.7176
-0.1194805 103.4186 27.43952 0.1450981 -2.980906 1.622087 3.972246 -25.4428 3.542767 6.235662e-11 24.04422 4.204158e-12 -5.758847 -3.314475 -5.209392 -5.344873 16.93343 -14.06822 1.357687e-10 21.17401 1.702954e-10 -1.898305 -18.31811 16.11555 -1.778122 -1.233311 2.605085 1.813674 9.457272 -8.159707 1.474765 21.77751 6.868178 3.377402 -21.01824 8.011191 3.088976 -15.62241 10.62582 89.62315 28.71846 -23.43648 6.858509e-12 -4.857246e-12 8.119307 -13.28332 10.02398 5.948912 6.294183 -22.41697 -4.328593 -84.78965 26.9447 10.94932 1.067203e-11 1.022811e-11 -25.2193 3.713266 13.32085 9.407963
-0.2124656 103.3953 31.86547 0.1351396 -2.838103 1.950326 4.003056 -26.78942 3.512248 6.698135e-11 23.86267 4.627915e-12 -5.826954 -3.055734 -5.297478 -5.41397 18.17034 -14.24539 1.460213e-10 21.06861 1.831224e-10 -1.819345 -18.6765 15.97137 -1.802385 -1.256766 2.43361 1.90788 9.407271 -8.308314 1.458079 21.73553 6.931936 3.407114 -21.09917 8.061559 3.148501 -15.37587 10.59239 89.79841 28.81568 -23.95012 7.361465e-12 -5.239072e-12 7.613556 -13.0106 9.976653 5.72162 6.364081 -22.58465 -4.355827 -84.35172 26.95147 10.32521 1.15026e-11 1.094342e-11 -25.71622 3.907572 13.39629 9.165514
-0.2992046 103.3664 36.28168 0.1367923 -2.764612 2.290828 4.03247 -27.60125 3.506946 6.972165e-11 23.81562 4.846516e-12 -5.878336 -2.917657 -5.358867 -5.458197 18.90299 -14.37623 1.520166e-10 21.05769 1.906578e-10 -1.773636 -18.91928 15.92841 -1.81999 -1.27276 2.343428 1.966336 9.40029 -8.410642 1.449076 21.76163 6.983583 3.435571 -21.19162 8.11065 3.192427 -15.27252 10.59945 90.13014 28.87736 -24.34089 7.658173e-12 -5.464845e-12 7.348708 -12.8896 9.970932 5.610613 6.416413 -22.73001 -4.378395 -84.32177 26.98655 10.04786 1.200002e-11 1.135742e-11 -26.05189 4.022744 13.46914 9.050328
-0.3595098 103.3312 40.71289 0.1541738 -2.77461 2.63299 4.049646 -27.67241 3.523502 6.990032e-11 23.89536 4.806048e-12 -5.896967 -2.929675 -5.375585 -5.467644 18.9497 -14.41965 1.522803e-10 21.12746 1.91045e-10 -1.771618 -18.97631 15.98351 -1.825489 -1.2767 2.353261 1.973802 9.430951 -8.436803 1.449646 21.83304 7.005894 3.452219 -21.2584 8.140107 3.207052 -15.32427 10.63679 90.46171 28.88715 -24.4836 7.677473e-12 -5.475801e-12 7.379317 -12.93718 10.00173 5.635719 6.434704 -22.80225 -4.388741 -84.63333 27.03337 10.15702 1.203552e-11 1.137534e-11 -26.12983 4.029923 13.5128 9.082059
-0.3736535 103.2899 45.18241 0.1881192 -2.866806 2.966127 4.052946 -27.00059 3.560157 6.751301e-11 24.09599 4.515002e-12 -5.88174 -3.090479 -5.346705 -5.442626 18.30961 -14.37287 1.468238e-10 21.27286 1.842885e-10 -1.813429 -18.8444 16.13241 -1.81854 -1.268369 2.462092 1.929902 9.497069 -8.385231 1.459755 21.9447 6.997415 3.455886 -21.29507 8.147925 3.191676 -15.52707 10.70181 90.76992 28.84659 -24.36923 7.418925e-12 -5.272008e-12 7.702269 -13.14969 10.06654 5.794944 6.417824 -22.79665 -4.386289 -85.26457 27.08521 10.64408 1.160741e-11 1.099852e-11 -25.9456 3.928824 13.52431 9.258181
-0.3194337 103.2423 49.7156 0.2418938 -3.052498 3.278148 4.038273 -25.4689 3.618917 6.215514e-11 24.42969 3.963163e-12 -5.825831 -3.421468 -5.263891 -5.374915 16.87605 -14.21966 1.348044e-10 21.50003 1.693104e-10 -1.906921 -18.4913 16.38526 -1.796931 -1.245569 2.684044 1.826134 9.6015 -8.242121 1.480934 22.09729 6.951769 3.443332 -21.29208 8.12861 3.141097 -15.89977 10.79577 91.02802 28.74941 -23.94932 6.83582e-12 -4.82545e-12 8.359164 -13.54879 10.16667 6.107081 6.359128 -22.69612 -4.368288 -86.24191 27.13008 11.55707 1.064829e-11 1.016e-11 -25.45398 3.702853 13.49468 9.597898
-0.1793998 103.1909 54.32518 0.3120864 -3.309346 3.558435 3.999007 -23.18843 3.688672 5.423601e-11 24.8303 3.256949e-12 -5.725441 -3.886421 -5.126867 -5.260397 14.76179 -13.956 1.172715e-10 21.75708 1.47364e-10 -2.046183 -17.92536 16.69494 -1.760396 -1.208543 2.994131 1.668486 9.720597 -8.008999 1.51117 22.24515 6.863265 3.40843 -21.22025 8.071012 3.053878 -16.38503 10.8931 91.07 28.60054 -23.20181 5.967283e-12 -4.182533e-12 9.275446 -14.07698 10.27691 6.532635 6.256014 -22.47822 -4.331569 -87.33868 27.1331 12.76098 9.243185e-12 8.915177e-12 -24.66632 3.370628 13.40584 10.05512
0.07193489 103.1345 59.03343 0.4063702 -3.673529 3.79244 3.92779 -19.82547 3.781829 4.258522e-11 25.34895 2.356038e-12 -5.563151 -4.550901 -4.913393 -5.069885 11.65917 -13.5408 9.175177e-11 22.07533 1.153057e-10 -2.254379 -17.06157 17.10303 -1.703506 -1.151394 3.436115 1.433128 9.868173 -7.649837 1.555009 22.40367 6.717238 3.345078 -21.06377 7.964666 2.916603 -17.04856 11.00406 90.88288 28.3739 -22.01099 4.675856e-12 -3.266926e-12 10.58042 -14.80713 10.40688 7.131528 6.092144 -22.10586 -4.269354 -88.68882 27.07707 14.41648 7.208951e-12 7.056579e-12 -23.463 2.885337 13.23876 10.69188
0.4455284 103.0798 63.83926 0.5117425 -4.08481 3.970884 3.825307 -15.83051 3.8811 2.878774e-11 25.86082 1.466673e-12 -5.349399 -5.309438 -4.642884 -4.807861 7.995917 -13.00654 6.187362e-11 22.36546 7.763234e-11 -2.505099 -15.99294 17.51854 -1.631613 -1.079762 3.939037 1.149606 10.00266 -7.201141 1.605759 22.50596 6.521498 3.253096 -20.80468 7.807735 2.740048 -17.76145 11.08842 90.30366 28.08341 -20.46929 3.127216e-12 -2.226788e-12 12.06378 -15.60319 10.51527 7.800564 5.880332 -21.58985 -4.183286 -89.90318 26.93885 16.20929 4.853605e-12 4.80983e-12 -21.97316 2.3164 12.98843 11.39326
0.9408684 103.032 68.7296 0.6174863 -4.500639 4.08983 3.699896 -11.58971 3.979383 1.418402e-11 26.30214 6.871259e-13 -5.101091 -6.084101 -4.338302 -4.485311 4.129945 -12.39431 3.054587e-11 22.58738 3.801523e-11 -2.774429 -14.81684 17.89345 -1.551205 -0.9999241 4.451219 0.844972 10.10489 -6.70342 1.65798 22.53027 6.292101 3.13987 -20.45782 7.611793 2.538474 -18.44435 11.13092 89.34634 27.73727 -18.71123 1.467135e-12 -1.174687e-12 13.57298 -16.37772 10.58557 8.468396 5.638554 -20.97012 -4.079146 -90.80931 26.73509 17.94277 2.428039e-12 2.372498e-12 -20.3325 1.721208 12.6715 12.08261
1.55484 102.9927 73.69239 0.7204944 -4.915359 4.14702 3.556454 -7.193835 4.080731 -9.215954e-13 26.67773 1.138955e-14 -4.825201 -6.86206 -4.007358 -4.101127 0.1419656 -11.71584 -1.640422e-12 22.74836 -2.766818e-12 -3.056687 -13.56444 18.23128 -1.464781 -0.9139151 4.964693 0.5263853 10.17749 -6.170432 1.710365 22.48782 6.037195 3.011052 -20.04042 7.385932 2.317366 -19.09287 11.13648 88.09036 27.32708 -16.79688 -2.71129e-13 -1.361998e-13 15.08488 -17.12352 10.62182 9.126048 5.374131 -20.27018 -3.95979 -91.44139 26.48636 19.60482 -3.780196e-15 -2.172328e-13 -18.5844 1.112998 12.30086 12.75123
2.274321 102.9652 78.71061 0.8110611 -5.293462 4.14484 3.408381 -3.034553 4.178379 -1.517811e-11 26.96002 -5.357464e-13 -4.547295 -7.575537 -3.680232 -3.686527 -3.613119 -11.02797 -3.188649e-11 22.83904 -4.113115e-11 -3.325589 -12.34941 18.50656 -1.380298 -0.8295941 5.43495 0.2228032 10.21616 -5.651161 1.757896 22.38726 5.780957 2.879673 -19.5937 7.152455 2.09666 -19.65335 11.10718 86.67291 26.87815 -14.90749 -1.930161e-12 7.997124e-13 16.46856 -17.77763 10.62445 9.716742 5.111421 -19.55669 -3.836062 -91.76575 26.22827 21.06066 -2.223554e-12 -2.727854e-12 -16.88802 0.5458378 11.91295 13.34217
